<svg width="40" height="40" viewBox="0 0 40 40" fill="none" xmlns="http://www.w3.org/2000/svg">
<circle cx="20" cy="20" r="19.5" stroke="white"/>
<path fill-rule="evenodd" clip-rule="evenodd" d="M36.5731 20.0009C36.5731 29.1535 29.1535 36.5731 20.0009 36.5731C10.8483 36.5731 3.42871 29.1535 3.42871 20.0009C3.42871 10.8483 10.8483 3.42871 20.0009 3.42871C29.1535 3.42871 36.5731 10.8483 36.5731 20.0009ZM25.3548 26.6829H26.2794C27.547 26.6829 28.5462 26.3328 29.277 25.6326C30.0077 24.9323 30.7384 23.7145 31.4692 21.9639C31.5736 21.7355 31.663 21.6289 31.7824 21.6289H31.8718H31.9315L30.7981 27.2919C30.1568 27.094 28.8892 26.9874 26.9953 26.9874H18.6737V26.8656C18.6737 26.7591 18.7781 26.6982 19.0018 26.6373C19.0738 26.6226 19.1489 26.6063 19.2266 26.5895C19.3903 26.554 19.5654 26.516 19.7475 26.4851C20.0308 26.4242 20.2694 26.2415 20.4931 25.937C20.7168 25.6326 20.8212 25.2063 20.8212 24.6431V14.7025C20.8212 14.2458 20.7168 13.8957 20.4931 13.6522C20.2694 13.4086 20.0308 13.2564 19.7624 13.2107C19.5885 13.1811 19.4272 13.1451 19.2743 13.1111L19.2743 13.1111C19.1911 13.0925 19.1105 13.0745 19.0317 13.0585C18.808 12.9976 18.7036 12.9215 18.7036 12.8301V12.7083H25.6978V12.8301C25.6978 12.9367 25.5785 13.0128 25.3548 13.0585C25.1311 13.1194 24.8776 13.165 24.6092 13.2107C24.3407 13.2564 24.0872 13.4086 23.8635 13.6674C23.6398 13.9262 23.5205 14.2763 23.5205 14.7178V19.8326V24.9475C23.5205 25.5108 23.6696 25.9522 23.953 26.2415C24.2363 26.5459 24.7135 26.6829 25.3548 26.6829ZM13.7279 25.3916C14.1882 26.0172 14.9556 26.3915 16.0226 26.522V27.0068C12.1217 26.9395 10.1641 25.1886 10.1641 21.7679V14.6704C10.1641 14.2212 10.0593 13.8768 9.83471 13.6372C9.62508 13.3976 9.37052 13.2479 9.11597 13.2029C8.92584 13.1694 8.73571 13.1275 8.5643 13.0897L8.56427 13.0897C8.5062 13.0769 8.45027 13.0646 8.39723 13.0532C8.18759 12.9933 8.0678 12.9184 8.0678 12.8286V12.7088H15.0456V12.8286C15.0456 12.9334 14.9557 12.9933 14.791 13.0532C14.6113 13.0981 14.4167 13.143 14.1921 13.173C13.9675 13.2029 13.7429 13.3077 13.5332 13.4725C13.3236 13.6372 13.1739 13.8768 13.099 14.1613C12.9343 14.5955 12.8444 15.0896 12.8444 15.6736V21.9177C12.8444 23.445 13.1439 24.598 13.7279 25.3916Z" fill="white"/>
</svg>
